<svg xmlns="http://www.w3.org/2000/svg" xmlns:xlink="http://www.w3.org/1999/xlink" width="500" zoomAndPan="magnify" viewBox="0 0 375 374.999991" height="500" preserveAspectRatio="xMidYMid meet" version="1.0"><defs><filter x="0%" y="0%" width="100%" height="100%" id="5ce9b0adf8"><feColorMatrix values="0 0 0 0 1 0 0 0 0 1 0 0 0 0 1 0 0 0 1 0" color-interpolation-filters="sRGB"/></filter><clipPath id="9875ebf856"><path d="M 0.234375 201 L 51 201 L 51 309 L 0.234375 309 Z M 0.234375 201 " clip-rule="nonzero"/></clipPath><mask id="485582ef1c"><g filter="url(#5ce9b0adf8)"><rect x="-37.5" width="450" fill="#000000" y="-37.499999" height="449.999989" fill-opacity="0.149"/></g></mask><clipPath id="9062498960"><path d="M 0.199219 1 L 31 1 L 31 32.921875 L 0.199219 32.921875 Z M 0.199219 1 " clip-rule="nonzero"/></clipPath><clipPath id="5736595b50"><rect x="0" width="32" y="0" height="33"/></clipPath><mask id="77ac6cf318"><g filter="url(#5ce9b0adf8)"><rect x="-37.5" width="450" fill="#000000" y="-37.499999" height="449.999989" fill-opacity="0.149"/></g></mask><clipPath id="3a68955ca6"><path d="M 0.320312 1 L 86 1 L 86 46 L 0.320312 46 Z M 0.320312 1 " clip-rule="nonzero"/></clipPath><clipPath id="bfbafa2888"><rect x="0" width="87" y="0" height="47"/></clipPath><mask id="fa7620a2c1"><g filter="url(#5ce9b0adf8)"><rect x="-37.5" width="450" fill="#000000" y="-37.499999" height="449.999989" fill-opacity="0.4"/></g></mask><clipPath id="00edb0b9f6"><path d="M 1 1 L 14 1 L 14 6.761719 L 1 6.761719 Z M 1 1 " clip-rule="nonzero"/></clipPath><clipPath id="7955b521a7"><rect x="0" width="15" y="0" height="7"/></clipPath><mask id="6c9f7bc057"><g filter="url(#5ce9b0adf8)"><rect x="-37.5" width="450" fill="#000000" y="-37.499999" height="449.999989" fill-opacity="0.4"/></g></mask><clipPath id="a6bc440d10"><path d="M 0.160156 1 L 22.960938 1 L 22.960938 6.761719 L 0.160156 6.761719 Z M 0.160156 1 " clip-rule="nonzero"/></clipPath><clipPath id="e041606058"><rect x="0" width="23" y="0" height="7"/></clipPath><mask id="516c891276"><g filter="url(#5ce9b0adf8)"><rect x="-37.5" width="450" fill="#000000" y="-37.499999" height="449.999989" fill-opacity="0.149"/></g></mask><clipPath id="04f57e78c7"><path d="M 0.679688 1 L 83 1 L 83 26 L 0.679688 26 Z M 0.679688 1 " clip-rule="nonzero"/></clipPath><clipPath id="5322dcc9a9"><rect x="0" width="84" y="0" height="27"/></clipPath><clipPath id="29d9075bec"><path d="M 323 67 L 374.484375 67 L 374.484375 174 L 323 174 Z M 323 67 " clip-rule="nonzero"/></clipPath><mask id="d74344c2ba"><g filter="url(#5ce9b0adf8)"><rect x="-37.5" width="450" fill="#000000" y="-37.499999" height="449.999989" fill-opacity="0.4"/></g></mask><clipPath id="9a435a54ad"><path d="M 0.238281 1 L 17.28125 1 L 17.28125 11.558594 L 0.238281 11.558594 Z M 0.238281 1 " clip-rule="nonzero"/></clipPath><clipPath id="37f8be968f"><rect x="0" width="18" y="0" height="12"/></clipPath><mask id="4d84a0d5ae"><g filter="url(#5ce9b0adf8)"><rect x="-37.5" width="450" fill="#000000" y="-37.499999" height="449.999989" fill-opacity="0.4"/></g></mask><clipPath id="587b04e9c8"><path d="M 0.441406 1 L 9 1 L 9 7.921875 L 0.441406 7.921875 Z M 0.441406 1 " clip-rule="nonzero"/></clipPath><clipPath id="c9e883d180"><rect x="0" width="10" y="0" height="8"/></clipPath><mask id="411bb5ebeb"><g filter="url(#5ce9b0adf8)"><rect x="-37.5" width="450" fill="#000000" y="-37.499999" height="449.999989" fill-opacity="0.149"/></g></mask><clipPath id="09289d6b2a"><rect x="0" width="61" y="0" height="26"/></clipPath></defs><path stroke-linecap="round" transform="matrix(0.839799, 0, 0, 0.84043, 0.546058, 0)" fill-opacity="1" fill="#faceb4" fill-rule="nonzero" stroke-linejoin="round" d="M 359.00148 363.002317 C 362.00164 358.201019 359.401501 347.101793 359.401501 347.101793 C 367.499607 340.10203 373.299916 332.000711 369.802055 320.799231 C 369.099692 318.498512 364.099426 313.502001 365.0018 311.201282 C 369.099692 300.999105 376.197744 288.598462 370.899788 277.801351 C 370.002066 275.997959 362.699351 269.500171 363.201704 268.198754 C 366.299543 260.59941 372.499873 251.298928 367.401927 243.402117 C 363.001693 236.49996 353.201171 232.697964 345.400756 232.697964 C 331.29768 232.697964 285.402213 240.301957 255.600627 246.999605 L 255.600627 232.200637 C 254.098221 233.199939 252.698147 234.199242 251.400403 235.300798 C 231.79936 251.201322 231.501669 257.201783 204.597912 256.899668 C 185.401541 256.699808 166.098188 256.899668 146.901817 256.899668 C 116.500198 256.899668 86.0009 256.899668 55.599282 256.899668 L 55.599282 351.600977 L 229.399232 351.600977 C 256.60068 358.40088 284.299829 371.098989 312.398999 372.400406 C 321.301799 372.800126 330.102267 373.302101 339.000415 373.799429 C 346.000788 374.101543 355.298957 369.100384 359.00148 363.002317 Z M 359.00148 363.002317 " stroke="#000000" stroke-width="8.748" stroke-opacity="1" stroke-miterlimit="10"/><path fill="#ff1616" d="M 4.242188 205.570312 L 47.238281 205.570312 L 47.238281 304.824219 L 4.242188 304.824219 Z M 4.242188 205.570312 " fill-opacity="1" fill-rule="nonzero"/><g clip-path="url(#9875ebf856)"><path stroke-linecap="round" transform="matrix(0.839799, 0, 0, 0.84043, 0.546058, 0)" fill="none" stroke-linejoin="round" d="M 4.401208 244.60128 L 55.599282 244.60128 L 55.599282 362.700203 L 4.401208 362.700203 Z M 4.401208 244.60128 " stroke="#000000" stroke-width="8.748" stroke-opacity="1" stroke-miterlimit="10"/></g><g mask="url(#485582ef1c)"><g transform="matrix(1, 0, 0, 1, 7, 269)"><g clip-path="url(#5736595b50)"><g clip-path="url(#9062498960)"><path stroke-linecap="round" transform="matrix(0.839799, 0, 0, 0.84043, -6.453942, -269)" fill="none" stroke-linejoin="round" d="M 37.700655 351.698583 L 15.299462 351.698583 L 15.299462 327.901248 " stroke="#000000" stroke-width="13.122" stroke-opacity="1" stroke-miterlimit="10"/></g></g></g></g><path stroke-linecap="round" transform="matrix(0.839799, 0, 0, 0.84043, 0.546058, 0)" fill-opacity="1" fill="#fab18d" fill-rule="nonzero" stroke-linejoin="round" d="M 82.80073 359.200321 C 87.600986 362.198228 98.699251 359.600042 98.699251 359.600042 C 105.699623 367.701361 113.797729 373.501962 124.998325 370.00208 C 127.300773 369.300245 132.30104 364.299086 134.598836 365.200782 C 144.799379 369.300245 157.20004 376.402262 168.000615 371.098989 C 169.80071 370.201941 176.298731 362.900063 177.601126 363.402038 C 185.20153 366.502199 194.4997 372.697872 202.397794 367.599107 C 209.300488 363.202178 213.10069 353.399721 213.10069 345.600516 C 213.10069 331.498736 205.500285 285.600556 198.802254 255.798112 L 213.598391 255.798112 C 212.598338 254.301483 211.598284 252.897812 210.500551 251.601043 C 194.602031 232.000777 188.601711 231.698662 188.899401 204.801167 C 189.099412 185.600621 188.899401 166.297822 188.899401 147.101925 C 188.899401 116.6999 188.899401 86.200269 188.899401 55.798244 L 94.201337 55.798244 L 94.201337 229.597804 C 87.400975 256.802062 74.697973 284.498999 73.40023 312.600305 C 73.000208 321.501067 72.497856 330.299573 72.000155 339.200334 C 71.800144 346.097843 76.69808 355.398325 82.80073 359.200321 Z M 82.80073 359.200321 " stroke="#000000" stroke-width="8.748" stroke-opacity="1" stroke-miterlimit="10"/><g mask="url(#77ac6cf318)"><g transform="matrix(1, 0, 0, 1, 64, 264)"><g clip-path="url(#bfbafa2888)"><g clip-path="url(#3a68955ca6)"><path stroke-linecap="round" transform="matrix(0.839799, 0, 0, 0.84043, -63.453945, -264)" fill="none" stroke-linejoin="round" d="M 170.698436 354.399023 C 168.60065 355.70044 166.698223 357.601438 164.498106 359.702296 C 163.898074 360.199623 163.200362 360.999065 162.60033 361.50104 C 161.697957 361.798507 160.697903 361.998367 159.600171 361.998367 C 154.999926 361.998367 149.199617 359.497788 143.599319 357.099463 C 141.901554 356.402275 140.301469 355.70044 138.799063 355.100858 L 138.599053 354.998604 C 137.198978 354.501277 135.701224 354.199163 134.101139 354.199163 C 129.198552 354.199163 125.39835 356.899602 122.30051 359.000461 C 121.900489 359.297928 121.500468 359.600042 121.198126 359.799903 C 120.300404 359.999763 119.500361 360.102017 118.700319 360.102017 C 116.397871 360.102017 112.99769 359.200321 107.099701 352.400419 L 102.801798 347.39926 L 96.401457 348.900537 C 95.499084 349.100398 92.498924 349.699979 89.898786 349.699979 C 89.098743 349.699979 88.601042 349.597725 88.2987 349.597725 C 85.698562 347.701375 83.098424 342.597962 83.298434 339.697662 C 83.600776 333.901709 83.898466 328.198715 84.200808 322.398114 " stroke="#000000" stroke-width="13.122" stroke-opacity="1" stroke-miterlimit="10"/></g></g></g></g><path fill="#1aa999" d="M 70.417969 3.78125 L 169.597656 3.78125 L 169.597656 46.8125 L 70.417969 46.8125 Z M 70.417969 3.78125 " fill-opacity="1" fill-rule="nonzero"/><path stroke-linecap="round" transform="matrix(0.839799, 0, 0, 0.84043, 0.546058, 0)" fill="none" stroke-linejoin="round" d="M 131.300986 4.401577 L 83.200751 4.401577 L 83.200751 55.598383 L 201.300062 55.598383 L 201.300062 4.401577 L 169.89839 4.401577 " stroke="#000000" stroke-width="8.748" stroke-opacity="1" stroke-miterlimit="10"/><path stroke-linecap="round" transform="matrix(0.839799, 0, 0, 0.84043, 0.546058, 0)" fill="none" stroke-linejoin="round" d="M 152.799805 4.401577 L 149.199614 4.401577 " stroke="#000000" stroke-width="8.748" stroke-opacity="1" stroke-miterlimit="10"/><g mask="url(#fa7620a2c1)"><g transform="matrix(1, 0, 0, 1, 109, 11)"><g clip-path="url(#7955b521a7)"><g clip-path="url(#00edb0b9f6)"><path stroke-linecap="round" transform="matrix(0.839799, 0, 0, 0.84043, -108.453945, -11)" fill="none" stroke-linejoin="round" d="M 133.901128 17.601662 L 142.199244 17.601662 " stroke="#ffffff" stroke-width="6.561" stroke-opacity="1" stroke-miterlimit="10"/></g></g></g></g><g mask="url(#6c9f7bc057)"><g transform="matrix(1, 0, 0, 1, 128, 11)"><g clip-path="url(#e041606058)"><g clip-path="url(#a6bc440d10)"><path stroke-linecap="round" transform="matrix(0.839799, 0, 0, 0.84043, -127.453945, -11)" fill="none" stroke-linejoin="round" d="M 155.999979 17.601662 L 175.201001 17.601662 " stroke="#ffffff" stroke-width="6.561" stroke-opacity="1" stroke-miterlimit="10"/></g></g></g></g><path stroke-linecap="round" transform="matrix(0.839799, 0, 0, 0.84043, 0.546058, 0)" fill-opacity="1" fill="#faceb4" fill-rule="nonzero" stroke-linejoin="round" d="M 85.898569 84.09941 C 82.89841 88.900708 85.498548 99.999934 85.498548 99.999934 C 77.400443 106.999697 71.600134 115.101016 75.097994 126.297849 C 75.800357 128.598567 80.800624 133.599726 79.89825 135.900445 C 75.800357 146.097975 68.702305 158.498617 74.000262 169.300377 C 74.897984 171.09912 82.200698 177.601556 81.698346 178.898325 C 78.600506 186.502317 72.400176 195.798151 77.498122 203.69961 C 81.898356 210.601767 91.698878 214.399115 99.499293 214.399115 C 113.597718 214.399115 159.497836 206.799771 189.299423 200.102123 L 189.299423 214.90109 C 190.801828 213.901788 192.201903 212.897838 193.499646 211.80093 C 213.10069 195.900406 213.39838 189.899945 240.302138 190.202059 C 259.498509 190.40192 278.801862 190.202059 297.998233 190.202059 C 328.399851 190.202059 358.899149 190.202059 389.300768 190.202059 L 389.300768 95.500751 L 215.598497 95.500751 C 188.401701 88.700848 160.6979 75.998091 132.59873 74.701322 C 123.700582 74.301601 114.900113 73.799626 106.001965 73.302299 C 99.001592 73.097791 89.601092 78.001343 85.898569 84.09941 Z M 85.898569 84.09941 " stroke="#000000" stroke-width="8.748" stroke-opacity="1" stroke-miterlimit="10"/><g mask="url(#516c891276)"><g transform="matrix(1, 0, 0, 1, 67, 151)"><g clip-path="url(#5322dcc9a9)"><g clip-path="url(#04f57e78c7)"><path stroke-linecap="round" transform="matrix(0.839799, 0, 0, 0.84043, -66.453945, -151)" fill="none" stroke-linejoin="round" d="M 170.698436 193.000105 C 142.301575 198.698452 109.89985 203.602004 99.601628 203.602004 C 94.699041 203.602004 88.698722 200.99917 86.800946 197.89901 C 85.898573 196.397733 88.201021 191.298968 89.801106 187.90134 " stroke="#000000" stroke-width="13.122" stroke-opacity="1" stroke-miterlimit="10"/></g></g></g></g><path fill="#ff1616" d="M 327.5625 71.015625 L 370.5625 71.015625 L 370.5625 170.269531 L 327.5625 170.269531 Z M 327.5625 71.015625 " fill-opacity="1" fill-rule="nonzero"/><g clip-path="url(#29d9075bec)"><path stroke-linecap="round" transform="matrix(0.839799, 0, 0, 0.84043, 0.546058, 0)" fill="none" stroke-linejoin="round" d="M 389.398447 84.499131 L 440.601173 84.499131 L 440.601173 202.598054 L 389.398447 202.598054 Z M 389.398447 84.499131 " stroke="#000000" stroke-width="8.748" stroke-opacity="1" stroke-miterlimit="10"/></g><path fill="#fab18d" d="M 304.46875 73.203125 C 300.4375 70.679688 291.117188 72.867188 291.117188 72.867188 C 285.238281 66.058594 278.4375 61.183594 269.03125 64.125 C 267.097656 64.714844 262.898438 68.914062 260.96875 68.160156 C 252.402344 64.714844 241.988281 58.746094 232.917969 63.199219 C 231.40625 63.957031 225.949219 70.09375 224.855469 69.671875 C 218.472656 67.066406 210.664062 61.855469 204.03125 66.140625 C 198.234375 69.839844 195.042969 78.074219 195.042969 84.632812 C 195.042969 96.480469 201.425781 135.058594 207.050781 160.101562 L 194.625 160.101562 C 195.464844 161.363281 196.304688 162.539062 197.226562 163.632812 C 210.578125 180.105469 215.617188 180.355469 215.367188 202.964844 C 215.199219 219.101562 215.367188 235.320312 215.367188 251.457031 C 215.367188 277.003906 215.367188 302.640625 215.367188 328.1875 L 294.894531 328.1875 L 294.894531 182.207031 C 300.605469 159.34375 311.273438 136.066406 312.363281 112.449219 C 312.699219 104.96875 313.121094 97.574219 313.539062 90.09375 C 313.707031 84.210938 309.507812 76.394531 304.46875 73.203125 Z M 304.46875 73.203125 " fill-opacity="1" fill-rule="nonzero"/><path stroke-linecap="round" transform="matrix(0.839799, 0, 0, 0.84043, 0.546058, 0)" fill="none" stroke-linejoin="round" d="M 276.499414 75.300903 C 274.699318 76.197951 268.201298 83.499829 266.898903 82.997854 C 259.298498 79.897693 250.000329 73.70202 242.102234 78.800785 C 235.199541 83.197714 231.399338 93.000171 231.399338 100.799376 C 231.399338 114.901156 238.999743 160.799336 245.697774 190.60178 L 230.901637 190.60178 C 231.901691 192.098409 232.901744 193.50208 233.999477 194.798849 C 249.897998 214.399115 255.898317 214.70123 255.600627 241.598725 C 255.400616 260.799271 255.600627 280.10207 255.600627 299.297967 C 255.600627 329.699992 255.600627 360.199623 255.600627 390.601648 L 350.298691 390.601648 L 350.298691 216.802088 C 357.099053 189.59783 369.802055 161.900893 371.099799 133.799587 C 371.49982 124.898826 372.002172 116.100319 372.499873 107.199558 C 372.899894 100.199795 367.899628 90.899313 361.801629 87.101965 C 357.001374 84.09941 345.898457 86.702244 345.898457 86.702244 C 338.898084 78.600924 330.799979 72.800324 319.599383 76.300205 C 317.301586 77.002041 312.30132 81.998552 309.998871 81.101504 " stroke="#000000" stroke-width="8.748" stroke-opacity="1" stroke-miterlimit="10"/><path stroke-linecap="round" transform="matrix(0.839799, 0, 0, 0.84043, 0.546058, 0)" fill="none" stroke-linejoin="round" d="M 295.900447 75.500764 C 295.100404 75.198649 294.300361 74.998789 293.500319 74.798928 " stroke="#000000" stroke-width="8.748" stroke-opacity="1" stroke-miterlimit="10"/><g mask="url(#d74344c2ba)"><g transform="matrix(1, 0, 0, 1, 258, 71)"><g clip-path="url(#37f8be968f)"><g clip-path="url(#9a435a54ad)"><path stroke-linecap="round" transform="matrix(0.839799, 0, 0, 0.84043, -257.453931, -71)" fill="none" stroke-linejoin="round" d="M 310.598889 94.399194 C 316.199188 94.399194 320.501742 91.401288 323.701913 89.198175 " stroke="#ffffff" stroke-width="6.561" stroke-opacity="1" stroke-miterlimit="10"/></g></g></g></g><g mask="url(#4d84a0d5ae)"><g transform="matrix(1, 0, 0, 1, 247, 72)"><g clip-path="url(#c9e883d180)"><g clip-path="url(#587b04e9c8)"><path stroke-linecap="round" transform="matrix(0.839799, 0, 0, 0.84043, -246.453931, -72)" fill="none" stroke-linejoin="round" d="M 297.500518 90.202125 C 298.39824 90.601846 299.300614 91.001567 300.198336 91.401288 " stroke="#ffffff" stroke-width="6.561" stroke-opacity="1" stroke-miterlimit="10"/></g></g></g></g><path stroke-linecap="round" transform="matrix(0.839799, 0, 0, 0.84043, 0.546058, 0)" fill-opacity="1" fill="#faceb4" fill-rule="nonzero" stroke-linejoin="round" d="M 365.0018 311.099028 C 369.099692 300.901498 376.197744 288.500856 370.899788 277.699097 C 370.002066 275.900353 362.699351 269.397917 363.201704 268.101148 C 366.299543 260.501804 372.499873 251.201322 367.401927 243.299863 C 363.001693 236.397706 353.201171 232.600358 345.400756 232.600358 C 331.29768 232.600358 285.402213 240.199702 255.600627 246.901999 L 255.600627 232.098383 C 254.098221 233.102333 252.698147 234.101635 251.400403 235.198544 C 231.79936 251.099068 231.501669 257.099529 204.597912 256.802062 C 202.797816 256.802062 201.100051 256.802062 199.299955 256.802062 C 205.900307 286.599858 213.39838 331.60099 213.39838 345.498262 C 213.39838 347.39926 213.198369 349.500118 212.700669 351.498723 L 229.399232 351.498723 C 256.60068 358.298625 284.299829 371.001383 312.398999 372.298151 C 321.301799 372.697872 330.102267 373.199847 339.000415 373.701822 C 346.000788 374.101543 355.298957 369.100384 359.09916 362.997669 C 362.099319 358.201019 359.499181 347.101793 359.499181 347.101793 C 367.601938 340.10203 373.402247 332.000711 369.899735 320.799231 C 369.099692 318.400906 364.099426 313.502001 365.0018 311.099028 Z M 365.0018 311.099028 " stroke="#000000" stroke-width="8.748" stroke-opacity="1" stroke-miterlimit="10"/><path stroke-linecap="round" transform="matrix(0.839799, 0, 0, 0.84043, 0.546058, 0)" fill-opacity="1" fill="#1aa999" fill-rule="nonzero" stroke-linejoin="round" d="M 243.399977 390.699255 L 361.499288 390.699255 L 361.499288 441.900708 L 243.399977 441.900708 Z M 243.399977 390.699255 " stroke="#000000" stroke-width="8.748" stroke-opacity="1" stroke-miterlimit="10"/><g mask="url(#411bb5ebeb)"><g transform="matrix(1, 0, 0, 1, 207, 343)"><g clip-path="url(#09289d6b2a)"><path stroke-linecap="round" transform="matrix(0.839799, 0, 0, 0.84043, -206.453945, -343)" fill="none" stroke-linejoin="round" d="M 310.598907 430.899089 L 254.400566 430.899089 L 254.400566 416.299982 " stroke="#000000" stroke-width="13.122" stroke-opacity="1" stroke-miterlimit="10"/></g></g></g></svg>